<svg width="32" height="31" viewBox="0 0 32 31" fill="none" xmlns="http://www.w3.org/2000/svg">
<path d="M29.3337 15.4997C29.3337 22.6334 23.3641 28.4163 16.0003 28.4163M29.3337 15.4997C29.3337 8.366 23.3641 2.58301 16.0003 2.58301M29.3337 15.4997H2.66699M16.0003 28.4163C8.63653 28.4163 2.66699 22.6334 2.66699 15.4997M16.0003 28.4163C19.3354 24.8793 21.2307 20.2891 21.3337 15.4997C21.2307 10.7102 19.3354 6.12005 16.0003 2.58301M16.0003 28.4163C12.6653 24.8793 10.77 20.2891 10.667 15.4997C10.77 10.7102 12.6653 6.12005 16.0003 2.58301M2.66699 15.4997C2.66699 8.366 8.63653 2.58301 16.0003 2.58301" stroke="#0EAA00" stroke-width="3" stroke-linecap="round" stroke-linejoin="round"/>
</svg>
